<?xml version="1.0" encoding="UTF-8" standalone="no"?>
<!-- Created with Inkscape (http://www.inkscape.org/) -->

<svg
   width="152.7233mm"
   height="85.759216mm"
   viewBox="0 0 152.7233 85.759216"
   version="1.1"
   id="svg5"
   xml:space="preserve"
   xmlns:inkscape="http://www.inkscape.org/namespaces/inkscape"
   xmlns:sodipodi="http://sodipodi.sourceforge.net/DTD/sodipodi-0.dtd"
   xmlns="http://www.w3.org/2000/svg"
   xmlns:svg="http://www.w3.org/2000/svg"><sodipodi:namedview
     id="namedview7"
     pagecolor="#505050"
     bordercolor="#eeeeee"
     borderopacity="1"
     inkscape:showpageshadow="0"
     inkscape:pageopacity="0"
     inkscape:pagecheckerboard="0"
     inkscape:deskcolor="#505050"
     inkscape:document-units="mm"
     showgrid="false" /><defs
     id="defs2"><clipPath
       clipPathUnits="userSpaceOnUse"
       id="clipPath204"><path
         d="M 0,1580.313 H 1714.797 V 0 H 0 Z"
         id="path202" /></clipPath></defs><g
     id="g198"
     transform="matrix(0.35277776,0,0,-0.35277778,-225.90476,142.5869)"><g
       id="g200"
       clip-path="url(#clipPath204)"><g
         id="g528"
         transform="translate(922.3051,161.9503)"
         inkscape:export-filename="g528.svg"
         inkscape:export-xdpi="76.8"
         inkscape:export-ydpi="76.8"><path
           d="M 0,0 V 1.996 C 8.319,5.324 12.644,15.638 12.644,25.62 v 190.993 c 0,9.981 -4.325,20.295 -12.644,23.623 v 1.997 h 59.227 v -1.997 C 50.909,236.908 46.251,226.594 46.251,216.613 V 25.62 c 0,-9.982 4.658,-20.296 12.976,-23.624 V 0 Z"
           style="fill:#a2a5a3;fill-opacity:1;fill-rule:nonzero;stroke:none"
           id="path530" /></g><g
         id="g532"
         transform="translate(779.1447,404.183)"><path
           d="m 0,0 h -44.919 v -1.996 c 8.319,-3.328 12.644,-13.642 12.644,-23.624 v -188.329 c 0,-8.985 -4.991,-19.634 -13.975,-26.287 v -1.997 h 34.604 v 1.997 c -8.651,6.321 -14.972,17.302 -14.972,26.287 v 192.654 l 94.496,-220.938 h 1.998 l 15.543,37.303 z"
           style="fill:#a2a5a3;fill-opacity:1;fill-rule:nonzero;stroke:none"
           id="path534" /></g><g
         id="g536"
         transform="translate(693.1124,191.1689)"
         style="fill:#dfbd4a;fill-opacity:1"><path
           d="m 0,0 c 1.135,-0.409 0.966,-1.339 0.915,-2.127 -0.154,-2.382 -0.382,-4.76 -0.58,-7.14 -0.127,-1.516 -0.255,-3.031 -0.37,-4.548 -0.015,-0.193 0.045,-0.391 0.202,-0.618 23.955,66.497 49.455,132.355 78.825,196.666 -0.117,0.08 -0.235,0.16 -0.352,0.239 -0.328,-0.32 -0.697,-0.61 -0.979,-0.967 -5.374,-6.788 -10.858,-13.494 -16.076,-20.4 C 53.507,150.411 45.502,139.659 37.674,128.782 30.906,119.376 24.407,109.776 17.826,100.236 9.374,87.983 0.991,75.682 -7.5,63.456 c -1.771,-2.55 -3.875,-4.871 -5.844,-7.283 -0.341,-0.418 -0.753,-0.786 -1.169,-1.133 -1.929,-1.61 -2.745,-1.507 -4.263,0.5 -1.07,1.415 -1.639,3.05 -1.49,4.778 0.331,3.854 0.487,7.769 1.324,11.523 2.665,11.948 5.61,23.833 8.443,35.743 0.143,0.6 0.249,1.209 0.372,1.813 -0.108,0.042 -0.215,0.084 -0.323,0.126 -0.327,-0.45 -0.691,-0.878 -0.976,-1.354 -5.417,-9.042 -10.968,-18.008 -16.2,-27.156 -6.959,-12.17 -13.66,-24.487 -20.495,-36.728 -0.651,-1.166 -1.418,-2.276 -2.219,-3.345 -0.652,-0.87 -1.127,-0.787 -1.755,0.124 -0.668,0.968 -0.843,2.064 -0.451,3.113 1.089,2.91 2.015,5.926 3.488,8.638 5.792,10.663 11.658,21.288 17.708,31.806 6.214,10.801 12.657,21.47 19.047,32.169 0.98,1.641 2.15,3.182 3.356,4.669 0.965,1.189 1.633,1.162 2.71,0.102 2.239,-2.203 3.583,-4.743 2.796,-8.001 -1.378,-5.702 -2.693,-11.42 -4.183,-17.093 -2.761,-10.51 -5.658,-20.984 -8.428,-31.492 -0.534,-2.023 -0.756,-4.13 -1.104,-6.201 -0.063,-0.375 -0.038,-0.766 -0.053,-1.149 0.089,-0.067 0.179,-0.133 0.269,-0.2 0.756,0.624 1.627,1.151 2.249,1.888 2.966,3.51 6.12,6.9 8.744,10.656 10.451,14.964 20.795,30.004 31.059,45.098 17.702,26.034 35.745,51.826 54.427,77.168 1.523,2.066 3.188,4.033 4.883,5.963 0.906,1.032 1.518,1.026 2.439,-0.027 0.967,-1.106 1.82,-2.333 2.575,-3.596 0.696,-1.164 0.523,-2.483 0.052,-3.69 -1.843,-4.722 -3.585,-9.491 -5.637,-14.122 C 75.722,158.413 67.385,140.155 59.322,121.777 46.218,91.908 34.397,61.524 23.056,30.947 16.165,12.369 9.151,-6.164 2.164,-24.708 c -0.572,-1.52 -1.293,-2.994 -2.056,-4.43 -0.63,-1.185 -1.254,-1.228 -2.212,-0.28 -1.521,1.503 -2.337,3.219 -1.957,5.466 1.325,7.854 2.574,15.721 3.857,23.583 C -0.188,-0.272 -0.105,-0.185 0,0"
           style="fill:#dfbd4a;fill-opacity:1;fill-rule:nonzero;stroke:none"
           id="path538" /></g><g
         id="g540"
         transform="translate(790.8035,275.9545)"
         style="fill:#dfbd4a;fill-opacity:1"><path
           d="M 0,0 C 1.965,1.748 3.507,3.777 4.296,6.304 2.256,4.614 0.93,2.441 0,0 m -47.192,-15.918 c 0.079,-0.081 0.158,-0.163 0.237,-0.245 0.333,0.173 0.701,0.299 0.992,0.526 1.026,0.8 2.157,1.518 3.013,2.478 3.224,3.616 6.333,7.335 9.534,10.973 0.982,1.116 1.16,2.201 0.558,3.557 -0.348,0.782 -0.748,1.094 -1.456,0.599 -1.21,-0.848 -2.487,-1.65 -3.524,-2.684 -4.062,-4.051 -6.899,-8.911 -9.044,-14.197 -0.131,-0.324 -0.208,-0.671 -0.31,-1.007 M 15.902,5.133 C 14.841,3.768 13.789,2.395 12.717,1.039 10.6,-1.641 8.344,-4.2 5.523,-6.159 4.439,-6.912 3.2,-7.479 1.968,-7.972 c -1.407,-0.563 -2.762,-0.232 -3.776,0.887 -0.649,0.717 -1.08,0.566 -1.823,0.145 -1.815,-1.03 -3.683,-1.983 -5.592,-2.825 -1.183,-0.522 -2.219,-0.044 -3.104,0.912 -1.645,1.777 -2.131,3.826 -1.586,6.133 0.212,0.9 0.287,1.526 -0.877,1.84 -0.632,0.17 -1.13,0.83 -1.786,1.346 -0.927,-1.181 -1.792,-2.333 -2.711,-3.44 -2.637,-3.175 -5.295,-6.331 -7.947,-9.492 -0.093,-0.11 -0.204,-0.205 -0.31,-0.305 -2.232,-2.111 -3.202,-1.953 -4.912,0.648 -0.978,1.488 -1.257,3.052 -0.944,4.764 0.112,0.617 0.223,1.233 0.334,1.85 -0.088,0.042 -0.176,0.084 -0.264,0.126 -1.167,-1.496 -2.3,-3.021 -3.508,-4.484 -2.42,-2.931 -4.854,-5.851 -7.343,-8.723 -0.679,-0.784 -1.532,-1.44 -2.383,-2.047 -1.182,-0.842 -1.861,-0.768 -2.879,0.251 -2.237,2.235 -3.56,4.891 -3.136,8.109 1.053,8.004 4.493,14.839 10.355,20.413 0.698,0.664 1.564,1.17 2.404,1.663 1.854,1.089 3.715,0.923 5.193,-0.569 1.489,-1.503 2.714,-3.264 4.074,-4.896 0.467,-0.559 0.953,-1.114 1.5,-1.591 1.206,-1.052 1.917,-2.316 1.563,-3.926 -0.458,-2.084 -1.047,-4.141 -1.569,-6.211 -0.129,-0.512 -0.22,-1.034 -0.328,-1.551 0.085,-0.063 0.17,-0.126 0.255,-0.188 0.573,0.499 1.18,0.963 1.712,1.503 3.048,3.089 5.47,6.648 7.729,10.331 0.655,1.069 1.079,2.144 1.128,3.443 0.071,1.856 0.912,3.49 2.011,4.966 0.644,0.865 1.239,0.97 1.998,0.223 0.843,-0.83 1.583,-1.776 2.283,-2.733 0.996,-1.362 1.141,-2.793 0.061,-4.207 -0.571,-0.748 -0.418,-1.283 0.272,-1.933 1.743,-1.643 2.429,-3.628 1.642,-6.012 -0.359,-1.089 -0.603,-2.215 -0.976,-3.611 0.802,0.125 1.435,0.087 1.936,0.326 1.562,0.747 3.091,1.567 4.587,2.438 0.247,0.144 0.463,0.767 0.356,1.033 -1.976,4.906 1.878,12.043 5.34,14.413 2.118,1.45 3.609,1.303 5.341,-0.591 C 8.157,8.413 8.4,6.772 7.134,4.311 5.448,1.033 2.901,-1.54 0.23,-4.005 0.006,-4.213 -0.202,-4.437 -0.418,-4.653 c 0.049,-0.119 0.098,-0.239 0.148,-0.359 0.834,0.216 1.708,0.338 2.497,0.664 3.196,1.32 5.673,3.624 7.883,6.181 5.688,6.578 10.585,13.674 14.022,21.725 5.518,12.926 11.103,25.824 16.669,38.729 0.358,0.83 0.796,1.626 1.21,2.431 0.379,0.739 0.945,0.897 1.595,0.378 1.303,-1.04 2.312,-2.34 2.743,-3.948 0.156,-0.585 -0.054,-1.376 -0.337,-1.956 C 42.427,51.833 38.636,44.57 35.222,37.133 30.854,27.621 26.779,17.975 22.585,8.384 22.433,8.038 22.353,7.661 22.445,7.102 c 0.32,0.175 0.643,0.344 0.961,0.524 1.921,1.085 3.79,2.277 5.775,3.229 2.011,0.966 4.681,-0.784 4.72,-3.02 C 33.908,7.443 33.477,6.919 33.105,6.667 30.617,4.981 28.094,3.347 25.577,1.704 23.544,0.379 21.502,-0.931 19.47,-2.258 19.16,-2.46 18.884,-2.715 18.593,-2.946 c 0.033,-0.113 0.066,-0.226 0.1,-0.339 0.554,0.031 1.117,0.009 1.66,0.103 4.423,0.764 8.852,1.503 13.261,2.343 5.477,1.043 10.934,2.188 16.405,3.264 C 53.2,3.05 56.365,2.881 59.497,2.077 59.91,1.971 60.362,1.848 60.682,1.591 61.579,0.873 61.536,0.125 60.479,-0.258 58.688,-0.907 56.868,-1.624 55,-1.886 47.721,-2.909 40.412,-3.728 33.125,-4.698 29.106,-5.233 25.109,-5.938 21.096,-6.525 19.88,-6.702 18.644,-6.809 17.417,-6.818 c -0.94,-0.006 -1.409,-0.368 -1.761,-1.235 -3.278,-8.091 -6.593,-16.167 -9.917,-24.24 -0.224,-0.545 -0.608,-1.023 -0.918,-1.533 -0.53,0.398 -1.139,0.724 -1.576,1.206 -1.243,1.374 -1.392,2.954 -0.713,4.656 1.505,3.768 2.953,7.557 4.495,11.309 1.68,4.088 3.443,8.141 5.156,12.215 0.15,0.358 0.351,0.797 0.267,1.134 -0.343,1.381 0.385,2.309 1.093,3.36 1.036,1.536 1.875,3.204 2.798,4.816 -0.147,0.088 -0.293,0.176 -0.439,0.263"
           style="fill:#dfbd4a;fill-opacity:1;fill-rule:nonzero;stroke:none"
           id="path542" /></g><g
         id="g544"
         transform="translate(932.2796,364.882)"
         style="fill:#dfbd4a;fill-opacity:1"><path
           d="m 0,0 c -0.527,-2.617 -0.899,-5.278 -1.61,-7.844 -2.122,-7.662 -5.126,-15.013 -8.273,-22.295 -7.372,-17.058 -14.878,-34.057 -22.241,-51.118 -6.085,-14.102 -12.102,-28.234 -18.042,-42.397 -5.871,-13.996 -11.607,-28.049 -17.407,-42.075 -0.277,-0.669 -0.591,-1.323 -0.899,-1.978 -0.334,-0.71 -0.842,-0.915 -1.463,-0.371 -1.537,1.346 -3.185,3.398 -2.173,5.99 2.29,5.868 4.4,11.814 6.88,17.601 5.579,13.017 11.344,25.955 17.023,38.93 10.124,23.129 20.285,46.242 30.337,69.401 4.557,10.499 9.082,21.023 12.322,32.031 0.632,2.146 1.028,4.367 1.439,6.572 0.219,1.178 -0.052,1.517 -1.19,1.213 -2.365,-0.632 -4.772,-1.263 -6.982,-2.284 -7.341,-3.392 -13.93,-8.009 -20.225,-13.035 -15.829,-12.637 -29.525,-27.262 -40.584,-44.259 -2.498,-3.839 -4.442,-8.04 -6.59,-12.101 -0.242,-0.458 -0.082,-1.112 -0.228,-1.642 -0.226,-0.819 -0.51,-1.631 -0.888,-2.387 -0.057,-0.112 -0.835,-0.022 -1.151,0.178 -3.221,2.04 -4.738,6.588 -3.357,10.13 1.654,4.24 4.352,7.843 7.155,11.36 5.882,7.382 12.506,14.079 19.283,20.624 8.368,8.08 17.025,15.838 26.26,22.926 6.126,4.701 12.403,9.184 19.345,12.632 1.389,0.69 2.857,1.232 4.317,1.765 2.521,0.921 4.66,0.478 6.351,-1.777 C -1.299,4.068 -0.342,2.254 -0.278,0.058 -0.185,0.039 -0.093,0.019 0,0"
           style="fill:#dfbd4a;fill-opacity:1;fill-rule:nonzero;stroke:none"
           id="path546" /></g><g
         id="g548"
         transform="translate(996.1594,287.5921)"
         style="fill:#dfbd4a;fill-opacity:1"><path
           d="M 0,0 C 2.129,1.283 3.921,2.915 5.326,4.951 3.099,3.784 1.416,2.031 0,0 m -59.481,0.333 c -0.126,0.053 -0.251,0.107 -0.376,0.16 -2.451,-2.25 -4.366,-4.903 -5.855,-7.899 0.264,-0.043 0.458,-0.014 0.552,0.098 1.821,2.184 3.643,4.366 5.425,6.581 0.206,0.256 0.175,0.702 0.254,1.06 m 59.586,47.82 c -0.131,0.059 -0.262,0.118 -0.393,0.176 l -9.72,-21.686 c 0.12,-0.054 0.24,-0.108 0.36,-0.162 3.817,6.97 7.163,14.151 9.753,21.672 M -27.191,-0.806 c -0.726,-0.52 -1.428,-1.077 -2.183,-1.551 -1.452,-0.913 -2.4,-0.767 -3.288,0.703 -0.655,1.085 -1.047,2.329 -1.613,3.635 -0.347,-0.309 -0.814,-0.671 -1.215,-1.094 -2.444,-2.575 -4.876,-5.161 -7.304,-7.751 -0.886,-0.945 -1.255,-1.026 -2.054,0.01 -0.776,1.007 -1.34,2.179 -2.043,3.355 -0.716,-0.587 -1.508,-1.319 -2.382,-1.933 -1.36,-0.953 -2.757,-1.856 -4.173,-2.724 -1.009,-0.618 -1.969,-0.388 -2.747,0.456 -0.679,0.738 -1.295,1.535 -2.02,2.403 -0.305,-0.274 -0.59,-0.527 -0.872,-0.785 -2.003,-1.833 -3.936,-3.749 -6.025,-5.477 -2.028,-1.678 -3.023,-1.409 -4.459,0.814 -0.963,1.49 -1.199,3.102 -0.802,4.791 1.018,4.327 3.076,8.105 6.147,11.32 0.372,0.389 0.815,0.723 1.265,1.02 1.432,0.944 2.5,0.868 3.703,-0.344 1.363,-1.372 2.595,-2.838 2.721,-4.916 0.016,-0.26 0.207,-0.531 0.372,-0.758 0.96,-1.32 1.747,-2.682 1.288,-4.418 -0.032,-0.119 0.051,-0.268 0.126,-0.614 0.615,0.254 1.186,0.426 1.694,0.71 3.966,2.215 6.815,5.56 9.292,9.27 0.381,0.571 0.681,1.195 1.026,1.791 0.508,0.876 0.975,1.001 1.708,0.279 1.546,-1.523 2.973,-3.136 2.331,-5.59 -0.015,-0.055 0.046,-0.129 0.134,-0.349 0.339,0.329 0.66,0.592 0.923,0.904 1.401,1.662 2.813,3.315 4.166,5.015 0.577,0.725 1.08,0.745 1.689,0.116 1.24,-1.28 1.916,-2.68 1.228,-4.519 -0.41,-1.095 -0.644,-2.255 -0.958,-3.386 0.095,-0.084 0.19,-0.167 0.285,-0.25 0.509,0.203 1.067,0.332 1.519,0.624 2.615,1.688 4.815,3.654 6.075,6.699 5.62,13.591 11.329,27.147 17.13,40.661 1.783,4.154 3.916,8.162 5.989,12.186 0.621,1.205 1.508,2.3 2.409,3.326 0.761,0.867 1.405,0.825 2.246,0.017 C 5.847,61.197 6.823,59.378 6.14,56.829 4.556,50.917 2.173,45.33 -0.451,39.833 -4.75,30.83 -9.742,22.223 -15.202,13.871 c -1.392,-2.13 -2.253,-4.608 -3.349,-6.93 -0.055,-0.118 -0.026,-0.275 -0.051,-0.619 0.452,0.175 0.796,0.296 1.131,0.44 1.328,0.571 2.646,1.169 3.985,1.712 0.393,0.159 0.877,0.307 1.263,0.218 0.586,-0.136 1.287,-0.348 1.642,-0.775 0.492,-0.591 0.066,-1.263 -0.462,-1.701 -2.478,-2.055 -4.976,-4.084 -7.468,-6.121 -0.379,-0.31 -0.762,-0.616 -1.054,-1.182 0.408,-0.02 0.823,-0.098 1.224,-0.051 3.741,0.438 7.484,0.871 11.214,1.389 0.391,0.054 0.875,0.585 1.032,1.002 1.097,2.902 2.745,5.416 5.039,7.506 0.134,0.122 0.269,0.244 0.413,0.354 3.06,2.33 5.129,2.595 7.798,-1.567 0.388,-0.605 0.743,-1.244 1.213,-1.779 1.037,-1.18 1.807,-2.406 1.661,-4.092 -0.03,-0.34 0.538,-0.997 0.91,-1.063 2.057,-0.366 4.155,-0.909 6.209,-0.806 5.021,0.253 10.054,0.627 15.032,1.317 8.571,1.188 17.103,2.669 25.657,3.986 1.391,0.214 2.814,0.262 4.224,0.302 1.525,0.044 3.16,-1.925 2.71,-3.361 C 64.644,1.647 63.877,1.26 63.362,1.195 59.23,0.673 55.093,0.183 50.949,-0.229 42.045,-1.114 33.142,-2.01 24.228,-2.769 21.17,-3.029 18.078,-2.953 15.003,-2.924 11.731,-2.893 9.22,-1.493 7.72,1.509 7.672,1.605 7.599,1.689 7.527,1.771 7.481,1.824 7.417,1.862 7.216,2.022 6.121,1.103 5.013,0.139 3.869,-0.781 1.952,-2.32 0.054,-3.889 -1.935,-5.332 c -1.173,-0.851 -1.648,-0.741 -2.608,0.36 -0.587,0.672 -1.126,1.436 -1.48,2.248 -0.372,0.853 -0.82,0.879 -1.603,0.657 -3.689,-1.049 -7.373,-2.127 -11.102,-3.015 -1.48,-0.353 -3.075,-0.201 -4.607,-0.374 -0.346,-0.039 -0.801,-0.41 -0.945,-0.741 -3.163,-7.236 -6.299,-14.484 -9.413,-21.741 -0.7,-1.63 -1.306,-3.3 -1.945,-4.955 -0.412,-1.067 -0.766,-1.151 -1.62,-0.363 -1.872,1.731 -2.251,3.265 -1.18,5.757 2.975,6.923 6.013,13.818 9.021,20.726 0.835,1.917 1.657,3.84 2.485,5.76 -0.087,0.069 -0.173,0.138 -0.259,0.207"
           style="fill:#dfbd4a;fill-opacity:1;fill-rule:nonzero;stroke:none"
           id="path550" /></g><g
         id="g552"
         transform="translate(915.2751,280.7942)"
         style="fill:#dfbd4a;fill-opacity:1"><path
           d="m 0,0 c 0.258,0.418 0.491,0.853 0.778,1.25 2.204,3.05 4.386,6.117 6.64,9.13 1.601,2.14 3.667,3.793 5.937,5.177 0.288,0.175 0.75,0.064 1.131,0.085 0.008,-0.425 0.193,-0.97 -0.003,-1.255 C 12.786,11.912 11.043,9.468 9.272,7.045 4.979,1.172 0.677,-4.693 -3.648,-10.542 c -1.505,-2.037 -2.042,-1.982 -3.564,0.1 -0.996,1.362 -1.42,2.836 -1.076,4.497 1.097,5.29 2.539,10.478 4.667,15.457 0.169,0.397 0.393,0.777 0.636,1.134 1.209,1.781 2.227,1.773 3.503,0.013 C 1.387,9.462 1.587,8.113 1.288,6.73 0.899,4.93 0.373,3.16 -0.098,1.377 -0.194,1.012 -0.304,0.649 -0.407,0.285 -0.271,0.19 -0.136,0.095 0,0"
           style="fill:#dfbd4a;fill-opacity:1;fill-rule:nonzero;stroke:none"
           id="path554" /></g><g
         id="g556"
         transform="translate(1071.2621,289.9422)"
         style="fill:#dfbd4a;fill-opacity:1"><path
           d="m 0,0 c -1.221,0.246 -2.814,0.015 -3.8,1.467 -0.761,1.12 -0.068,3.934 1.196,4.347 0.559,0.182 1.506,0.087 1.889,-0.284 C 0.248,4.599 1.153,3.526 1.776,2.349 2.442,1.09 1.669,0.103 0,0"
           style="fill:#dfbd4a;fill-opacity:1;fill-rule:nonzero;stroke:none"
           id="path558" /></g></g></g></svg>
