<?xml version="1.0" encoding="iso-8859-1"?>
<!-- Generator: Adobe Illustrator 26.5.0, SVG Export Plug-In . SVG Version: 6.00 Build 0)  -->
<svg version="1.1" id="Layer_1" xmlns="http://www.w3.org/2000/svg" xmlns:xlink="http://www.w3.org/1999/xlink" x="0px" y="0px"
	 viewBox="0 0 1843.2 947.253" style="enable-background:new 0 0 1843.2 947.253;" xml:space="preserve">
<rect style="fill:none;" width="1843.2" height="947.253"/>
<g>
	<path style="fill:#FFFFFF;" d="M212.654,820.349c4.697,2.001,3.762,5.891,3.359,9.207c-1.22,10.032-2.754,20.025-4.161,30.034
		c-0.896,6.376-1.801,12.751-2.65,19.133c-0.108,0.811,0.097,1.664,0.707,2.658C327.045,606.097,450.56,333.883,590.056,69.132
		c-0.477-0.365-0.954-0.73-1.431-1.095c-1.465,1.278-3.09,2.413-4.37,3.854c-24.333,27.402-49.112,54.427-72.813,82.367
		c-36.695,43.258-73.097,86.78-108.778,130.875c-30.853,38.129-60.611,77.147-90.704,115.888
		c-38.65,49.758-77.018,99.735-115.823,149.371c-8.096,10.356-17.542,19.661-26.44,29.383c-1.541,1.683-3.37,3.139-5.209,4.505
		c-8.539,6.344-11.963,5.713-17.895-3.129c-4.185-6.239-6.197-13.284-5.157-20.551c2.32-16.205,3.917-32.714,8.354-48.378
		c14.12-49.853,29.408-99.375,44.228-149.03c0.746-2.501,1.339-5.047,2.004-7.572c-0.444-0.203-0.888-0.405-1.332-0.608
		c-1.49,1.824-3.131,3.546-4.448,5.487c-25.057,36.916-50.661,73.477-74.957,110.887c-32.32,49.765-63.585,100.214-95.397,150.31
		c-3.029,4.77-6.534,9.277-10.177,13.604c-2.963,3.519-4.95,3.054-7.387-0.942c-2.591-4.251-3.068-8.924-1.158-13.265
		c5.296-12.037,9.931-24.563,16.805-35.671c27.025-43.674,54.357-87.174,82.441-130.172c28.842-44.159,58.621-87.708,88.184-131.392
		c4.534-6.699,9.848-12.932,15.3-18.928c4.36-4.795,7.178-4.518,11.477,0.218c8.935,9.843,14.005,20.901,9.9,34.479
		c-7.185,23.767-14.112,47.619-21.766,71.235c-14.181,43.755-28.927,87.326-43.148,131.068c-2.739,8.423-4.182,17.271-6.147,25.94
		c-0.356,1.572-0.344,3.227-0.502,4.844c0.363,0.302,0.727,0.605,1.09,0.907c3.345-2.454,7.149-4.473,9.956-7.437
		c13.376-14.126,27.513-27.696,39.499-42.942c47.747-60.737,95.058-121.823,142.041-183.155
		C427.332,234.301,509.749,129.62,594.76,26.996c6.929-8.365,14.437-16.282,22.059-24.03c4.079-4.147,6.661-3.972,10.302,0.698
		c3.823,4.902,7.132,10.295,10.02,15.811c2.662,5.086,1.618,10.616-0.662,15.605c-8.917,19.514-17.421,39.252-27.199,58.332
		c-38.741,75.602-78.342,150.764-116.811,226.503C429.951,443.002,372.729,568.58,317.489,695.081
		c-33.565,76.865-67.64,153.508-101.598,230.201c-2.784,6.287-6.182,12.343-9.751,18.23c-2.945,4.858-5.59,4.889-9.415,0.654
		c-6.065-6.717-9.103-14.162-6.964-23.566c7.479-32.875,14.639-65.823,21.942-98.739
		C211.794,821.453,212.167,821.107,212.654,820.349z"/>
	<path style="fill:#FFFFFF;" d="M714.199,467.523c-4.81,5.517-9.583,11.066-14.437,16.543
		c-9.588,10.818-19.734,21.091-32.124,28.695c-4.762,2.922-10.133,5.022-15.457,6.812c-6.08,2.044-11.728,0.321-15.744-4.651
		c-2.572-3.184-4.429-2.651-7.67-1.047c-7.917,3.917-16.037,7.5-24.307,10.599c-5.127,1.922-9.387-0.346-12.899-4.596
		c-6.529-7.902-8.091-16.678-5.238-26.299c1.113-3.753,1.578-6.378-3.267-7.984c-2.626-0.871-4.577-3.78-7.222-6.113
		c-4.203,4.766-8.131,9.431-12.281,13.888c-11.901,12.783-23.891,25.484-35.854,38.21c-0.418,0.445-0.913,0.818-1.382,1.214
		c-9.937,8.39-14,7.487-20.603-3.913c-3.776-6.52-4.582-13.197-2.853-20.359c0.622-2.578,1.238-5.157,1.857-7.736
		c-0.362-0.199-0.725-0.398-1.087-0.598c-5.289,6.046-10.442,12.217-15.896,18.11c-10.928,11.807-21.912,23.568-33.118,35.11
		c-3.058,3.149-6.819,5.719-10.559,8.077c-5.199,3.278-8.047,2.801-12.109-1.746c-8.915-9.98-13.873-21.522-11.313-35.019
		c6.368-33.572,22.539-61.637,48.643-83.788c3.11-2.639,6.892-4.571,10.556-6.453c8.097-4.158,15.923-3.012,21.813,3.647
		c5.93,6.705,10.687,14.442,16.045,21.661c1.837,2.475,3.758,4.937,5.956,7.083c4.847,4.734,7.548,10.244,5.667,16.964
		c-2.435,8.7-5.413,17.249-8.115,25.875c-0.668,2.133-1.175,4.316-1.756,6.476c0.344,0.285,0.688,0.571,1.032,0.856
		c2.539-1.972,5.217-3.791,7.594-5.942c13.62-12.325,24.706-26.787,35.133-41.813c3.025-4.359,5.074-8.802,5.592-14.278
		c0.741-7.827,4.688-14.532,9.683-20.506c2.93-3.503,5.47-3.805,8.499-0.464c3.361,3.707,6.265,7.882,8.995,12.096
		c3.883,5.992,4.153,12.075-0.75,17.792c-2.593,3.023-2.072,5.321,0.687,8.234c6.972,7.36,9.395,15.913,5.5,25.801
		c-1.778,4.514-3.08,9.216-4.989,15.025c3.422-0.336,6.088-0.025,8.26-0.916c6.778-2.78,13.438-5.882,19.967-9.205
		c1.08-0.55,2.142-3.13,1.753-4.278c-7.177-21.207,10.814-50.445,26.014-59.635c9.295-5.619,15.561-4.64,22.429,3.777
		c7.411,9.082,8.043,16.075,2.105,26.171c-7.91,13.45-19.287,23.712-31.163,33.493c-0.997,0.821-1.933,1.718-2.897,2.58
		c0.18,0.518,0.36,1.036,0.541,1.553c3.578-0.712,7.298-1.018,10.71-2.207c13.824-4.816,24.843-13.962,34.793-24.235
		c25.608-26.441,48.003-55.255,64.452-88.457c26.408-53.306,53.096-106.475,79.707-159.68c1.711-3.422,3.752-6.682,5.693-9.985
		c1.78-3.029,4.209-3.563,6.831-1.216c5.256,4.706,9.211,10.442,10.646,17.341c0.522,2.511-0.557,5.8-1.89,8.184
		c-16.91,30.242-34.667,60.031-50.876,90.64c-20.733,39.152-40.26,78.943-60.279,118.472c-0.722,1.426-1.151,3-0.898,5.381
		c1.396-0.66,2.801-1.3,4.186-1.982c8.378-4.126,16.564-8.717,25.178-12.267c8.731-3.599,19.595,4.433,19.223,13.895
		c-0.065,1.655-2.012,3.767-3.643,4.743c-10.915,6.533-21.969,12.834-33,19.172c-8.906,5.117-17.852,10.163-26.755,15.284
		c-1.358,0.781-2.583,1.793-3.87,2.697c0.114,0.486,0.227,0.971,0.341,1.457c2.348,0,4.723,0.23,7.041-0.036
		c18.875-2.173,37.767-4.235,56.601-6.729c23.394-3.098,46.73-6.634,70.106-9.87c13.592-1.881,26.927-0.412,39.972,3.735
		c1.717,0.546,3.598,1.176,4.891,2.338c3.618,3.251,3.257,6.4-1.301,7.765c-7.724,2.313-15.586,4.909-23.542,5.571
		c-31.008,2.582-62.088,4.293-93.117,6.65c-17.114,1.3-34.171,3.324-51.27,4.842c-5.181,0.46-10.429,0.616-15.619,0.359
		c-3.975-0.197-6.043,1.22-7.734,4.8c-15.79,33.408-31.73,66.746-47.708,100.065c-1.078,2.248-2.816,4.179-4.247,6.258
		c-2.146-1.807-4.642-3.331-6.371-5.474c-4.923-6.101-5.178-12.815-1.898-19.846c7.258-15.561,14.287-31.23,21.699-46.716
		c8.075-16.872,16.496-33.578,24.709-50.385c0.722-1.478,1.676-3.287,1.403-4.731c-1.119-5.917,2.176-9.666,5.423-13.937
		c4.745-6.241,8.688-13.092,12.973-19.683C715.393,468.335,714.796,467.929,714.199,467.523z M442.53,541.394
		c0.315,0.365,0.631,0.729,0.946,1.094c1.446-0.65,3.033-1.097,4.314-1.985c4.53-3.138,9.482-5.9,13.327-9.751
		c14.49-14.512,28.518-29.484,42.915-44.091c4.416-4.481,5.43-9.025,3.209-14.899c-1.283-3.391-2.899-4.804-6.01-2.879
		c-5.316,3.291-10.906,6.376-15.535,10.498c-18.135,16.148-31.285,36.007-41.614,57.833
		C443.45,538.553,443.043,539.998,442.53,541.394z M645.77,485.413c8.723-6.917,15.724-15.121,19.661-25.615
		C656.409,466.454,650.282,475.32,645.77,485.413z"/>
	<path style="fill:#FFFFFF;" d="M1264.911,143.447c-2.853,10.935-5.061,22.088-8.679,32.763
		c-10.799,31.871-25.254,62.219-40.296,92.241c-35.231,70.321-71.017,140.364-106.213,210.702
		c-29.09,58.137-57.895,116.419-86.387,174.851c-28.157,57.744-55.759,115.758-83.624,173.644c-1.329,2.761-2.813,5.449-4.271,8.146
		c-1.58,2.921-3.778,3.665-6.272,1.218c-6.174-6.057-12.646-15.123-7.751-25.832c11.084-24.253,21.422-48.874,33.286-72.736
		c26.69-53.678,54.148-106.973,81.25-160.446c48.312-95.321,96.78-190.564,144.802-286.032
		c21.769-43.277,43.407-86.67,59.731-132.411c3.183-8.92,5.39-18.212,7.652-27.43c1.209-4.926,0.142-6.422-4.739-5.41
		c-10.143,2.104-20.468,4.195-30.05,7.981c-31.834,12.578-60.784,30.514-88.589,50.247
		C1054.847,234.56,993.47,293.09,942.669,362.274c-11.473,15.625-20.694,32.912-30.742,49.561c-1.133,1.878-0.612,4.68-1.356,6.885
		c-1.15,3.406-2.547,6.771-4.326,9.875c-0.265,0.462-3.533-0.107-4.819-1.028c-13.126-9.391-18.45-28.972-11.763-43.611
		c8.004-17.522,20.267-32.106,32.95-46.297c26.623-29.787,56.219-56.507,86.425-82.543c37.294-32.146,75.732-62.861,116.455-90.604
		c27.011-18.402,54.609-35.846,84.774-48.757c6.034-2.582,12.367-4.52,18.662-6.423c10.877-3.289,19.811-0.908,26.418,9.026
		c5.047,7.589,8.656,15.481,8.401,24.777C1264.136,143.239,1264.523,143.343,1264.911,143.447z"/>
	<path style="fill:#FFFFFF;" d="M1401.279,482.25c-3.192,2.023-6.293,4.21-9.596,6.034c-6.354,3.509-10.329,2.669-13.729-3.759
		c-2.507-4.741-3.865-10.09-5.948-15.746c-1.54,1.225-3.599,2.64-5.396,4.333c-10.942,10.299-21.838,20.646-32.718,31.011
		c-3.97,3.782-5.551,4.035-8.678-0.534c-3.04-4.443-5.142-9.528-7.831-14.665c-3.167,2.308-6.688,5.212-10.531,7.596
		c-5.972,3.705-12.094,7.183-18.284,10.513c-4.411,2.373-8.414,1.171-11.499-2.583c-2.696-3.281-5.106-6.797-7.962-10.639
		c-1.355,1.087-2.623,2.089-3.875,3.111c-8.901,7.267-17.531,14.901-26.773,21.705c-8.97,6.604-13.11,5.23-18.647-4.507
		c-3.712-6.528-4.327-13.398-2.244-20.441c5.337-18.042,14.939-33.514,28.686-46.367c1.662-1.554,3.614-2.858,5.59-4.006
		c6.275-3.646,10.77-3.072,15.567,2.339c5.43,6.124,10.285,12.613,10.32,21.426c0.005,1.104,0.749,2.294,1.391,3.291
		c3.741,5.81,6.744,11.752,4.386,18.978c-0.162,0.496,0.152,1.148,0.389,2.627c2.658-0.926,5.112-1.517,7.329-2.596
		c17.287-8.413,30.13-21.865,41.482-36.951c1.747-2.322,3.165-4.889,4.766-7.323c2.356-3.581,4.358-4,7.285-0.771
		c6.169,6.807,11.813,13.961,8.511,24.181c-0.073,0.227,0.167,0.555,0.484,1.505c1.512-1.31,2.93-2.344,4.116-3.599
		c6.318-6.687,12.681-13.337,18.807-20.198c2.609-2.923,4.743-2.887,7.165-0.085c4.932,5.704,7.454,11.786,4.108,19.389
		c-1.994,4.529-3.262,9.378-4.856,14.082c0.381,0.375,0.762,0.75,1.144,1.125c2.199-0.74,4.586-1.149,6.566-2.274
		c11.458-6.51,21.225-14.292,27.275-26.858c27.004-56.09,54.369-112.011,82.117-167.736c8.529-17.128,18.5-33.556,28.222-50.062
		c2.913-4.946,6.924-9.361,10.977-13.483c3.422-3.48,6.136-3.147,9.497,0.469c6.831,7.349,10.523,15.273,7.027,25.879
		c-8.111,24.603-19.515,47.646-31.921,70.247c-20.321,37.02-43.475,72.196-68.544,106.185c-6.393,8.669-10.622,18.935-15.809,28.487
		c-0.263,0.484-0.176,1.157-0.363,2.603c1.95-0.631,3.434-1.062,4.882-1.589c5.75-2.095,11.461-4.305,17.252-6.28
		c1.697-0.578,3.777-1.089,5.387-0.618c2.445,0.714,5.356,1.776,6.755,3.664c1.939,2.619-0.024,5.354-2.36,7.079
		c-10.96,8.092-22.005,16.069-33.022,24.084c-1.676,1.219-3.367,2.42-4.736,4.74c1.72,0.183,3.455,0.612,5.158,0.509
		c15.915-0.955,31.834-1.89,47.723-3.187c1.667-0.136,3.837-2.263,4.602-3.986c5.33-12.005,12.896-22.234,23.089-30.519
		c0.595-0.483,1.194-0.966,1.828-1.395c13.49-9.114,22.299-9.742,32.581,8.486c1.494,2.648,2.842,5.433,4.701,7.808
		c4.098,5.235,7.062,10.6,6.039,17.69c-0.206,1.43,2.038,4.343,3.593,4.711c8.606,2.036,17.34,4.836,26.046,4.89
		c21.28,0.131,42.637-0.246,63.837-1.971c36.509-2.97,72.915-7.188,109.381-10.706c5.93-0.572,11.953-0.436,17.923-0.268
		c6.456,0.181,12.894,8.893,10.647,14.853c-0.63,1.671-3.965,3.125-6.156,3.277c-17.586,1.219-35.187,2.296-52.8,3.047
		c-37.837,1.613-75.675,3.268-113.529,4.343c-12.984,0.369-26.032-0.693-39.022-1.551c-13.818-0.913-24.095-7.428-29.716-20.475
		c-0.179-0.416-0.47-0.791-0.752-1.152c-0.184-0.235-0.444-0.411-1.256-1.137c-4.845,3.622-9.757,7.433-14.813,11.043
		c-8.47,6.048-16.867,12.225-25.616,17.846c-5.162,3.317-7.14,2.739-10.937-2.145c-2.319-2.982-4.416-6.336-5.716-9.855
		c-1.365-3.692-3.255-3.912-6.616-3.159c-15.839,3.551-31.666,7.224-47.635,10.086c-6.339,1.136-13.044,0.112-19.56,0.478
		c-1.471,0.083-3.482,1.539-4.173,2.905c-15.095,29.824-30.081,59.704-44.979,89.627c-3.345,6.719-6.304,13.633-9.402,20.474
		c-1.997,4.409-3.514,4.68-6.931,1.144c-7.498-7.76-8.732-14.337-3.611-24.609c14.228-28.543,28.713-56.957,43.081-85.431
		c3.987-7.901,7.918-15.831,11.875-23.747C1401.973,482.875,1401.626,482.563,1401.279,482.25z M1528.339,281.88
		c-0.54-0.28-1.08-0.559-1.62-0.839c-15.421,29.774-30.842,59.549-46.263,89.323c0.495,0.257,0.99,0.513,1.485,0.769
		C1499.738,342.591,1515.596,313.043,1528.339,281.88z M1265.092,469.717c-0.516-0.257-1.033-0.513-1.549-0.77
		c-10.896,8.926-19.624,19.679-26.633,31.981c1.107,0.247,1.934,0.171,2.357-0.282c8.219-8.791,16.441-17.579,24.502-26.514
		C1264.698,473.102,1264.674,471.21,1265.092,469.717z M1516.378,485.348c9.306-4.914,17.266-11.379,23.694-19.648
		C1530.378,470.1,1522.847,477.104,1516.378,485.348z"/>
	<path style="fill:#FFFFFF;" d="M1172.939,494.731c1.19-1.703,2.278-3.487,3.585-5.095c10.044-12.364,20.001-24.801,30.247-36.996
		c7.276-8.66,16.401-15.152,26.329-20.458c1.256-0.671,3.181-0.09,4.797-0.089c-0.066,1.797,0.583,4.146-0.31,5.303
		c-7.763,10.053-15.716,19.964-23.779,29.779c-19.544,23.792-39.13,47.549-58.803,71.234c-6.849,8.247-9.106,7.884-15.04-1.277
		c-3.882-5.994-5.324-12.322-3.47-19.26c5.902-22.094,13.236-43.672,23.417-64.205c0.811-1.636,1.847-3.189,2.959-4.642
		c5.538-7.236,9.836-6.956,14.809,0.782c3.387,5.27,3.909,11.015,2.315,16.79c-2.074,7.514-4.724,14.869-7.138,22.288
		c-0.495,1.523-1.044,3.028-1.567,4.542C1171.838,493.862,1172.389,494.297,1172.939,494.731z"/>
	<path style="fill:#FFFFFF;" d="M1834.321,493.379c-5.099-1.332-11.888-0.738-15.707-7.108c-2.948-4.917,0.653-16.641,6.093-18.083
		c2.406-0.638,6.387-0.009,7.918,1.649c3.846,4.165,7.413,8.917,9.764,14.043C1844.902,489.357,1841.401,493.342,1834.321,493.379z"
		/>
</g>
</svg>
